<svg width="24" height="24" viewBox="0 0 24 24" fill="none" xmlns="http://www.w3.org/2000/svg">
<path d="M13.434 18.4401C13.0384 18.8159 12.5197 19.0019 11.999 19C11.4803 19.0019 10.9596 18.8159 10.564 18.4401L9.85157 17.7613C9.83745 17.7498 9.83341 17.7307 9.81928 17.7172L0.591851 8.95083C-0.197284 8.20112 -0.197284 6.9874 0.591851 6.23961L1.30227 5.56084C2.09141 4.81305 3.37098 4.81305 4.1581 5.56084L11.999 13.01L19.8419 5.56084C20.629 4.81305 21.9066 4.81305 22.6957 5.56084L23.4081 6.23961C24.1973 6.9874 24.1973 8.20112 23.4081 8.95083L14.1787 17.7172C14.1646 17.7326 14.1605 17.7498 14.1484 17.7613L13.434 18.4401Z" fill="#31313D"/>
</svg>
